<?xml version="1.0" encoding="UTF-8" standalone="no"?>
<svg
   xmlns:dc="http://purl.org/dc/elements/1.1/"
   xmlns:cc="http://creativecommons.org/ns#"
   xmlns:rdf="http://www.w3.org/1999/02/22-rdf-syntax-ns#"
   xmlns:svg="http://www.w3.org/2000/svg"
   xmlns="http://www.w3.org/2000/svg"
   xmlns:sodipodi="http://sodipodi.sourceforge.net/DTD/sodipodi-0.dtd"
   xmlns:inkscape="http://www.inkscape.org/namespaces/inkscape"
   aria-labelledby="simpleicons-github-icon"
   role="img"
   viewBox="0 0 24 24"
   version="1.1"
   id="svg5"
   sodipodi:docname="github.svg"
   inkscape:version="0.92.1 r15371">
  <metadata
     id="metadata11">
    <rdf:RDF>
      <cc:Work
         rdf:about="">
        <dc:format>image/svg+xml</dc:format>
        <dc:type
           rdf:resource="http://purl.org/dc/dcmitype/StillImage" />
      </cc:Work>
    </rdf:RDF>
  </metadata>
  <defs
     id="defs9" />
  <sodipodi:namedview
     pagecolor="#ffffff"
     bordercolor="#666666"
     borderopacity="1"
     objecttolerance="10"
     gridtolerance="10"
     guidetolerance="10"
     inkscape:pageopacity="0"
     inkscape:pageshadow="2"
     inkscape:window-width="925"
     inkscape:window-height="745"
     id="namedview7"
     showgrid="false"
     inkscape:zoom="19.666667"
     inkscape:cx="14.866978"
     inkscape:cy="9.2344156"
     inkscape:window-x="210"
     inkscape:window-y="79"
     inkscape:window-maximized="0"
     inkscape:current-layer="svg5" />
  <title
     id="simpleicons-github-icon">GitHub icon</title>
  <path
     d="M12 .297c-6.63 0-12 5.373-12 12 0 5.303 3.438 9.8 8.205 11.385.6.113.82-.258.82-.577 0-.285-.01-1.04-.015-2.04-3.338.724-4.042-1.61-4.042-1.61C4.422 18.07 3.633 17.7 3.633 17.7c-1.087-.744.084-.729.084-.729 1.205.084 1.838 1.236 1.838 1.236 1.07 1.835 2.809 1.305 3.495.998.108-.776.417-1.305.76-1.605-2.665-.3-5.466-1.332-5.466-5.93 0-1.31.465-2.38 1.235-3.22-.135-.303-.54-1.523.105-3.176 0 0 1.005-.322 3.3 1.23.96-.267 1.98-.399 3-.405 1.02.006 2.04.138 3 .405 2.28-1.552 3.285-1.23 3.285-1.23.645 1.653.24 2.873.12 3.176.765.84 1.23 1.91 1.23 3.22 0 4.61-2.805 5.625-5.475 5.92.42.36.81 1.096.81 2.22 0 1.606-.015 2.896-.015 3.286 0 .315.21.69.825.57C20.565 22.092 24 17.592 24 12.297c0-6.627-5.373-12-12-12"
     id="path3" />
  <path
     style="fill:#ffffff;stroke-width:0.10169491"
     d="M 7.3027888,23.26967 C 5.7270816,22.581708 4.5959714,21.791305 3.3909756,20.536153 2.3932318,19.49688 1.8515407,18.710196 1.2126028,17.372559 -0.47257753,13.844578 -0.27773819,9.5623195 1.7191328,6.2398362 3.5065094,3.2659187 6.2038614,1.3429832 9.6775297,0.56631455 10.750459,0.32642097 13.200977,0.3290994 14.338983,0.57140953 c 4.764649,1.01451377 8.353033,4.60132007 9.368303,9.36418367 0.406712,1.9079788 0.208441,4.6141198 -0.470153,6.4169798 -1.173192,3.116881 -3.622401,5.691632 -6.568322,6.905002 -1.675535,0.690122 -1.728375,0.622374 -1.714145,-2.197739 0.01091,-2.161997 -0.07259,-2.709638 -0.482144,-3.16219 -0.0914,-0.101001 -0.147403,-0.199283 -0.124441,-0.218405 0.02296,-0.01912 0.46883,-0.132711 0.990816,-0.252422 1.248161,-0.286251 2.13214,-0.7198 2.802933,-1.374703 0.989939,-0.96649 1.485289,-2.363829 1.485289,-4.189875 0,-1.264599 -0.22704,-2.0939701 -0.795292,-2.905176 C 18.502789,8.4873481 18.454898,8.3566879 18.53572,8.1492073 18.701013,7.724881 18.657281,6.3163535 18.460411,5.7236339 l -0.180268,-0.5427348 -0.533026,0.055013 c -0.592224,0.061123 -1.331794,0.3488024 -2.212264,0.8605312 l -0.583791,0.339299 -0.78909,-0.168447 C 13.080137,6.0363563 10.992833,6.0348185 9.8619184,6.2641275 L 8.9950234,6.4399025 8.3934685,6.0776652 C 7.6006308,5.6002428 6.7802858,5.291635 6.1475266,5.2327579 L 5.6340362,5.1849786 5.5076671,5.5772351 C 5.3077152,6.1978955 5.2466853,7.355846 5.3838008,7.9274078 5.5047973,8.4317779 5.5013717,8.4469378 5.1565003,8.9333071 4.5302497,9.816503 4.3394883,10.488105 4.3374318,11.816949 c -0.00495,3.195786 1.4390106,5.042835 4.4223863,5.656932 l 0.870973,0.179281 -0.1996909,0.338451 C 9.3212702,18.177762 9.1750721,18.520866 9.1062156,18.754069 8.9579127,19.25634 8.6155345,19.425373 7.7288136,19.434098 6.9828075,19.44144 6.4358635,19.178232 5.9424343,18.57444 4.8574861,17.246827 4.165561,16.797054 3.4499275,16.954234 c -0.4550876,0.09995 -0.3815276,0.395824 0.202778,0.815605 0.4950022,0.355624 1.0075591,1.033305 1.2278278,1.623381 0.4733093,1.267947 1.797817,1.987067 3.3692085,1.829258 l 0.6994107,-0.07024 v 1.108626 c 0,0.726672 -0.042044,1.150671 -0.1220339,1.23066 -0.207218,0.207218 -0.7087741,0.13422 -1.5243298,-0.221855 z"
     id="path13"
     inkscape:connector-curvature="0" />
</svg>
