<?xml version="1.0" encoding="UTF-8" standalone="no"?>
<svg
   xmlns:dc="http://purl.org/dc/elements/1.1/"
   xmlns:cc="http://creativecommons.org/ns#"
   xmlns:rdf="http://www.w3.org/1999/02/22-rdf-syntax-ns#"
   xmlns:svg="http://www.w3.org/2000/svg"
   xmlns="http://www.w3.org/2000/svg"
   xmlns:sodipodi="http://sodipodi.sourceforge.net/DTD/sodipodi-0.dtd"
   xmlns:inkscape="http://www.inkscape.org/namespaces/inkscape"
   aria-labelledby="simpleicons-skype-icon"
   role="img"
   viewBox="0 0 24 24"
   version="1.1"
   id="svg5"
   sodipodi:docname="skype.svg"
   inkscape:version="0.92.1 r15371">
  <metadata
     id="metadata11">
    <rdf:RDF>
      <cc:Work
         rdf:about="">
        <dc:format>image/svg+xml</dc:format>
        <dc:type
           rdf:resource="http://purl.org/dc/dcmitype/StillImage" />
      </cc:Work>
    </rdf:RDF>
  </metadata>
  <defs
     id="defs9" />
  <sodipodi:namedview
     pagecolor="#ffffff"
     bordercolor="#666666"
     borderopacity="1"
     objecttolerance="10"
     gridtolerance="10"
     guidetolerance="10"
     inkscape:pageopacity="0"
     inkscape:pageshadow="2"
     inkscape:window-width="640"
     inkscape:window-height="746"
     id="namedview7"
     showgrid="false"
     inkscape:zoom="9.8333333"
     inkscape:cx="12"
     inkscape:cy="-4.2711864"
     inkscape:window-x="307"
     inkscape:window-y="248"
     inkscape:window-maximized="0"
     inkscape:current-layer="svg5" />
  <title
     id="simpleicons-skype-icon">Skype icon</title>
  <path
     d="M12.069 18.874c-4.023 0-5.82-1.979-5.82-3.464 0-.765.561-1.296 1.333-1.296 1.723 0 1.273 2.477 4.487 2.477 1.641 0 2.55-.895 2.55-1.811 0-.551-.269-1.16-1.354-1.429l-3.576-.895c-2.88-.724-3.403-2.286-3.403-3.751 0-3.047 2.861-4.191 5.549-4.191 2.471 0 5.393 1.373 5.393 3.199 0 .784-.688 1.24-1.453 1.24-1.469 0-1.198-2.037-4.164-2.037-1.469 0-2.292.664-2.292 1.617s1.153 1.258 2.157 1.487l2.637.587c2.891.649 3.624 2.346 3.624 3.944 0 2.476-1.902 4.324-5.722 4.324m11.084-4.882l-.029.135-.044-.24c.015.045.044.074.059.12.12-.675.181-1.363.181-2.052 0-1.529-.301-3.012-.898-4.42-.569-1.348-1.395-2.562-2.427-3.596-1.049-1.033-2.247-1.856-3.595-2.426-1.318-.631-2.801-.93-4.328-.93-.72 0-1.444.07-2.143.204l.119.06-.239-.033.119-.025C8.91.274 7.829 0 6.731 0c-1.789 0-3.47.698-4.736 1.967C.729 3.235.032 4.923.032 6.716c0 1.143.292 2.265.844 3.258l.02-.124.041.239-.06-.115c-.114.645-.172 1.299-.172 1.955 0 1.53.3 3.017.884 4.416.568 1.362 1.378 2.576 2.427 3.609 1.034 1.05 2.247 1.857 3.595 2.442 1.394.6 2.877.898 4.404.898.659 0 1.334-.06 1.977-.179l-.119-.062.24.046-.135.03c1.002.569 2.126.871 3.294.871 1.783 0 3.459-.69 4.733-1.963 1.259-1.259 1.962-2.951 1.962-4.749 0-1.138-.299-2.262-.853-3.266"
     id="path3" />
  <path
     style="fill:#ffffff;stroke-width:0.10169491"
     d="m 15.711864,23.738374 c -0.797173,-0.21211 -1.496436,-0.488087 -1.582349,-0.624504 -0.03266,-0.05186 -0.314401,-0.04201 -0.661017,0.02311 -0.360053,0.06765 -1.138161,0.09174 -1.926125,0.05963 C 9.8794287,23.128853 8.5824131,22.80805 7.1574374,22.112047 3.8714854,20.507086 1.5939465,17.501227 0.90993334,13.866694 0.75721065,13.055195 0.74403034,10.519741 0.89116776,10.256821 0.97452285,10.107874 0.94234831,9.9544954 0.74679616,9.5685918 -0.14809855,7.8026022 -0.09402167,5.4463482 0.88447879,3.5694425 1.457719,2.4698848 2.6587,1.3048073 3.7684247,0.77171261 c 1.8413525,-0.88455747 3.864258,-0.95044469 5.5457579,-0.18062859 0.4937023,0.22602445 0.6120965,0.24235733 1.1354444,0.15663862 1.469919,-0.2407565 3.579519,-0.0426531 5.024485,0.47182746 3.713065,1.3220389 6.414766,4.2543828 7.422701,8.0563745 0.258753,0.9760364 0.374006,3.4668484 0.198319,4.2860474 -0.06705,0.312653 -0.07878,0.573217 -0.02731,0.60661 0.36913,0.239458 0.830479,1.96679 0.830479,3.109384 0,1.798141 -0.662958,3.367409 -1.978283,4.682734 -1.6919,1.6919 -4.022448,2.35924 -6.208158,1.777674 z m -1.65357,-5.038654 c 2.001933,-0.406561 3.318584,-1.647896 3.648807,-3.44009 0.294486,-1.598231 -0.320213,-3.084357 -1.621032,-3.919091 -0.675266,-0.433317 -1.110682,-0.57418 -3.37201,-1.090887 C 10.421613,9.7258326 9.7525078,9.4617388 9.5049564,8.9830271 8.9343392,7.8795751 10.197866,6.8518095 11.961115,6.9851637 c 0.986527,0.074611 1.585958,0.3602861 2.377868,1.1332394 0.775423,0.7568595 0.971959,0.8714274 1.494901,0.8714274 0.528623,0 1.061208,-0.3006919 1.276128,-0.7204887 0.236703,-0.4623472 0.2232,-0.7547126 -0.06327,-1.3699121 -0.642932,-1.3807101 -2.874039,-2.3841755 -5.300979,-2.3841755 -1.8491479,0 -3.2860115,0.4607207 -4.3110338,1.3823039 -1.535525,1.3805689 -1.601767,4.0946893 -0.1329802,5.4485699 0.657203,0.605789 1.4445166,0.913461 3.980878,1.55568 2.470453,0.625532 2.721216,0.719469 3.057373,1.145313 0.327476,0.414848 0.247702,1.234741 -0.162113,1.666138 -0.492574,0.518516 -1.017003,0.730304 -1.932941,0.780612 -1.45263,0.07979 -2.187035,-0.260692 -3.1867312,-1.477397 C 8.7715395,14.667567 8.4031832,14.312906 8.2396453,14.228338 7.8306956,14.016861 7.2334544,14.036336 6.8439202,14.273849 5.8796881,14.861776 6.0414426,16.2671 7.1978485,17.348783 c 1.4542293,1.360261 4.1757025,1.896165 6.8604455,1.350937 z"
     id="path19"
     inkscape:connector-curvature="0" />
</svg>
