<?xml version="1.0" encoding="UTF-8" standalone="no"?>
<svg
   xmlns:dc="http://purl.org/dc/elements/1.1/"
   xmlns:cc="http://creativecommons.org/ns#"
   xmlns:rdf="http://www.w3.org/1999/02/22-rdf-syntax-ns#"
   xmlns:svg="http://www.w3.org/2000/svg"
   xmlns="http://www.w3.org/2000/svg"
   xmlns:sodipodi="http://sodipodi.sourceforge.net/DTD/sodipodi-0.dtd"
   xmlns:inkscape="http://www.inkscape.org/namespaces/inkscape"
   aria-labelledby="simpleicons-whatsapp-icon"
   role="img"
   viewBox="0 0 24 24"
   version="1.1"
   id="svg37"
   sodipodi:docname="whatsapp.svg"
   inkscape:version="0.92.1 r15371">
  <metadata
     id="metadata43">
    <rdf:RDF>
      <cc:Work
         rdf:about="">
        <dc:format>image/svg+xml</dc:format>
        <dc:type
           rdf:resource="http://purl.org/dc/dcmitype/StillImage" />
      </cc:Work>
    </rdf:RDF>
  </metadata>
  <defs
     id="defs41" />
  <sodipodi:namedview
     pagecolor="#ffffff"
     bordercolor="#666666"
     borderopacity="1"
     objecttolerance="10"
     gridtolerance="10"
     guidetolerance="10"
     inkscape:pageopacity="0"
     inkscape:pageshadow="2"
     inkscape:window-width="640"
     inkscape:window-height="700"
     id="namedview39"
     showgrid="false"
     inkscape:zoom="9.8333333"
     inkscape:cx="12"
     inkscape:cy="12"
     inkscape:window-x="325"
     inkscape:window-y="120"
     inkscape:window-maximized="0"
     inkscape:current-layer="svg37" />
  <title
     id="simpleicons-whatsapp-icon">WhatsApp icon</title>
  <path
     d="M17.498 14.382c-.301-.15-1.767-.867-2.04-.966-.273-.101-.473-.15-.673.15-.197.295-.771.964-.944 1.162-.175.195-.349.21-.646.075-.3-.15-1.263-.465-2.403-1.485-.888-.795-1.484-1.77-1.66-2.07-.174-.3-.019-.465.13-.615.136-.135.301-.345.451-.523.146-.181.194-.301.297-.496.1-.21.049-.375-.025-.524-.075-.15-.672-1.62-.922-2.206-.24-.584-.487-.51-.672-.51-.172-.015-.371-.015-.571-.015-.2 0-.523.074-.797.359-.273.3-1.045 1.02-1.045 2.475s1.07 2.865 1.219 3.075c.149.195 2.105 3.195 5.1 4.485.714.3 1.27.48 1.704.629.714.227 1.365.195 1.88.121.574-.091 1.767-.721 2.016-1.426.255-.705.255-1.29.18-1.425-.074-.135-.27-.21-.57-.345m-5.446 7.443h-.016c-1.77 0-3.524-.48-5.055-1.38l-.36-.214-3.75.975 1.005-3.645-.239-.375c-.99-1.576-1.516-3.391-1.516-5.26 0-5.445 4.455-9.885 9.942-9.885 2.654 0 5.145 1.035 7.021 2.91 1.875 1.859 2.909 4.35 2.909 6.99-.004 5.444-4.46 9.885-9.935 9.885M20.52 3.449C18.24 1.245 15.24 0 12.045 0 5.463 0 .104 5.334.101 11.893c0 2.096.549 4.14 1.595 5.945L0 24l6.335-1.652c1.746.943 3.71 1.444 5.71 1.447h.006c6.585 0 11.946-5.336 11.949-11.896 0-3.176-1.24-6.165-3.495-8.411"
     id="path35" />
  <path
     style="fill:#ffffff;stroke-width:0.10169491"
     d="m 0.10169492,23.873074 c 0,-0.0326 0.36851814,-1.396571 0.81892922,-3.03104 L 1.7395534,17.870271 1.3334332,17.004626 C 0.50971466,15.248873 0.19466718,13.830864 0.19215297,11.867797 0.18794696,8.5837922 1.4360438,5.6705062 3.8330451,3.3692891 6.1072764,1.1859361 8.8629003,0.08445257 12.050847,0.08445257 c 3.492256,0 6.631666,1.38927703 8.856294,3.91915823 2.217559,2.5218417 3.228597,5.5231788 2.980306,8.8472402 -0.350907,4.697866 -3.56884,8.770682 -8.134786,10.295894 -1.335705,0.446179 -2.504948,0.597729 -4.159441,0.53912 C 9.8773032,23.625079 8.6798011,23.358627 7.2124809,22.711123 L 6.2983103,22.307714 3.3779688,23.066649 c -1.6061879,0.417415 -3.00042643,0.782957 -3.09830778,0.812318 -0.0978814,0.02936 -0.1779661,0.02671 -0.1779661,-0.0059 z M 13.843435,21.622007 c 2.143003,-0.406521 3.790526,-1.28112 5.330648,-2.829812 3.036094,-3.052988 3.732118,-7.712623 1.721585,-11.5254063 C 19.715139,5.0280289 17.713212,3.2980174 15.382625,2.5025655 14.038355,2.0437532 13.121037,1.9175048 11.59322,1.981038 8.9915134,2.0892282 6.8057792,3.0517843 4.9811258,4.8928797 3.2918189,6.5974089 2.3116247,8.7106531 2.1468639,11.00339 c -0.1442276,2.007005 0.2248962,3.793958 1.1432576,5.534586 l 0.5324378,1.009162 -0.4919399,1.774585 c -0.2705669,0.976021 -0.474103,1.79242 -0.4523025,1.814221 0.021801,0.0218 0.824343,-0.166902 1.7834274,-0.419339 0.9590846,-0.252439 1.8045877,-0.458978 1.8788959,-0.458978 0.074308,0 0.3935661,0.139988 0.7094619,0.311085 1.9502784,1.056315 4.4620999,1.457583 6.5933329,1.053295 z"
     id="path45"
     inkscape:connector-curvature="0" />
  <path
     style="fill:#ffffff;stroke-width:0.10169491"
     d="M 13.536626,17.151934 C 11.526903,16.473967 9.985002,15.461732 8.5797535,13.897822 6.7317479,11.841164 5.8814428,10.137601 6.0459013,8.82132 6.1347897,8.1098814 6.5076727,7.3431747 7.008232,6.8426155 7.4075647,6.4432828 7.44896,6.4271186 8.0722937,6.4271186 c 0.3956281,0 0.6890957,0.049576 0.752491,0.1271187 0.1908034,0.2333838 1.141317,2.6118935 1.141317,2.855965 0,0.2403386 -0.4253246,0.9095797 -0.7457569,1.1734357 -0.093223,0.07676 -0.1694973,0.25206 -0.1694973,0.389546 0,0.619993 1.6446615,2.503156 2.7971635,3.202796 0.754136,0.457808 1.624129,0.807575 1.820903,0.732066 0.08134,-0.03121 0.430074,-0.397901 0.774976,-0.814867 0.723027,-0.874096 0.580358,-0.864331 2.030686,-0.138992 0.531356,0.265742 0.988983,0.481777 1.016949,0.480077 0.201695,-0.01226 0.50876,0.172528 0.56119,0.33772 0.03471,0.109377 0.0094,0.461697 -0.05629,0.782933 -0.100032,0.489283 -0.198098,0.660485 -0.604296,1.054968 -0.998251,0.96946 -2.120713,1.127268 -3.8555,0.542049 z"
     id="path47"
     inkscape:connector-curvature="0" />
</svg>
